<svg width="24" height="24" xmlns="http://www.w3.org/2000/svg" fill-rule="evenodd" clip-rule="evenodd"><path d="M12 0c6.623 0 12 5.377 12 12s-5.377 12-12 12-12-5.377-12-12 5.377-12 12-12zm4.667 19c.322 0 .583-.261.583-.583v-.584c.309 0 .606-.123.825-.341.219-.219.342-.516.342-.825v-4.667c.322 0 .583-.261.583-.583v-1.75c0-.322-.261-.584-.583-.584v-2.333c0-.966-.784-1.75-1.75-1.75h-9.334c-.966 0-1.75.784-1.75 1.75v2.333c-.322 0-.583.262-.583.584v1.75c0 .322.261.583.583.583v4.667c0 .309.123.606.342.825.219.218.516.341.825.341v.584c0 .322.261.583.583.583h1.167c.322 0 .583-.261.583-.583v-.584h5.834v.584c0 .322.261.583.583.583h1.167zm-9.042-4.083c.483 0 .875.392.875.875s-.392.875-.875.875-.875-.392-.875-.875.392-.875.875-.875zm8.75 0c.483 0 .875.392.875.875s-.392.875-.875.875-.875-.392-.875-.875.392-.875.875-.875zm-2.917.583c.161 0 .292.131.292.292 0 .161-.131.291-.292.291h-2.916c-.161 0-.292-.13-.292-.291 0-.161.131-.292.292-.292h2.916zm3.792-7.292c0-.161-.131-.291-.292-.291h-9.916c-.161 0-.292.13-.292.291v4.959s1.807.583 5.25.583 5.25-.583 5.25-.583v-4.959zm-2.917-2.041v.583h-4.666v-.583h4.666z"/></svg>